<?xml version="1.0" encoding="UTF-8"?>
<svg xmlns="http://www.w3.org/2000/svg" enable-background="new 0 0 64 64" viewBox="0 0 64 64">
    <g>
        <g>
            <path d="m10 32v30h44v-30l-22-22z" fill="#b8bec5" />
        </g>
        <g>
            <path d="m30.5 11.5-20.5 20.5v30h41v-30z" fill="#cfd3d9" />
        </g>
        <g>
            <circle cx="32" cy="42" fill="#bb9d6b" r="16" />
        </g>
        <g>
            <ellipse cx="30.5" cy="42" fill="#f9d18f" rx="14.5" ry="15.924" />
        </g>
        <g>
            <circle cx="32" cy="48" fill="#88929f" r="2" />
        </g>
        <g>
            <path d="m2 32 30-30 30 30h-8l-22-22-22 22z" fill="#4472b0" />
        </g>
        <g>
            <path d="m62 33h-8c-.266 0-.52-.105-.707-.293l-21.293-21.293-21.293 21.293c-.187.188-.441.293-.707.293h-8c-.404 0-.77-.244-.924-.617-.155-.374-.069-.804.217-1.09l30-30c.391-.391 1.023-.391 1.414 0l30 30c.286.286.372.716.217 1.09-.154.373-.52.617-.924.617zm-7.586-2h5.172l-27.586-27.586-27.586 27.586h5.172l21.707-21.707c.391-.391 1.023-.391 1.414 0z" />
        </g>
        <g>
            <path d="m54 63h-44c-.553 0-1-.448-1-1v-30h2v29h42v-29h2v30c0 .552-.447 1-1 1z" />
        </g>
        <g>
            <path d="m37.293 45.707-.879-.879c-1.18-1.179-2.747-1.828-4.414-1.828s-3.234.649-4.414 1.828l-.879.879-1.414-1.414.879-.879c1.557-1.557 3.627-2.414 5.828-2.414s4.271.857 5.828 2.414l.879.879z" />
        </g>
        <g>
            <path d="m40.293 42.708-.465-.464c-2.091-2.092-4.871-3.244-7.828-3.244s-5.737 1.152-7.828 3.243l-.465.465-1.414-1.415.465-.464c2.469-2.469 5.751-3.829 9.242-3.829s6.773 1.36 9.242 3.829l.465.464z" />
        </g>
        <g>
            <path d="m43.289 39.704c-3.05-3.05-7.042-4.704-11.289-4.704s-8.239 1.654-11.243 4.657l-1.468-1.36.05-.05c3.385-3.385 7.88-5.247 12.661-5.247s9.276 1.862 12.657 5.243l-.657.757z" />
        </g>
        <g>
            <path d="m32 51c-1.654 0-3-1.346-3-3s1.346-3 3-3 3 1.346 3 3-1.346 3-3 3zm0-4c-.552 0-1 .449-1 1s.448 1 1 1 1-.449 1-1-.448-1-1-1z" />
        </g>
        <g>
            <path d="m32 59c-9.374 0-17-7.626-17-17s7.626-17 17-17 17 7.626 17 17-7.626 17-17 17zm0-32c-8.271 0-15 6.729-15 15s6.729 15 15 15 15-6.729 15-15-6.729-15-15-15z" />
        </g>
    </g>
</svg>
